{"glyphs":{":":{"x_min":0,"x_max":198,"ha":198,"o":"m 29 59 l 53 83 l 124 14 l 99 -11 z m 74 104 l 99 129 l 169 60 l 145 35 z m 29 286 l 53 311 l 124 241 l 99 216 z m 74 332 l 99 356 l 169 287 l 145 262 z"},"$":{"x_min":0,"x_max":406,"ha":406,"o":"m 226 220 l 226 28 q 301 56 301 126 q 301 190 226 220 z m 226 -4 l 226 -89 l 191 -89 l 191 -8 q 159 -7 114 1 q 63 11 47 11 q 42 11 41 11 q 39 10 36 10 q 31 10 31 20 q 31 41 30 77 q 29 126 29 126 q 29 144 30 156 l 40 156 q 45 104 84 64 q 124 23 191 22 l 191 233 q 23 293 23 393 q 23 445 75 484 q 54 450 54 412 q 54 360 90 327 q 126 294 217 261 q 258 247 281 232 q 303 219 320 189 q 337 161 337 127 q 337 83 310 47 q 283 11 226 -4 z m 191 344 l 191 500 q 157 494 138 472 q 119 450 119 424 q 119 367 191 344 z m 191 532 l 191 593 l 226 593 l 226 536 q 288 536 362 506 q 362 496 363 472 q 365 424 365 404 q 365 403 364 388 l 354 388 q 350 439 312 471 q 276 502 226 502 l 226 330 q 320 299 354 259 q 388 219 388 167 q 388 121 353 80 q 367 109 367 140 q 367 179 348 210 q 329 241 300 259 q 273 276 204 302 q 124 332 104 361 q 84 391 84 422 q 84 467 117 497 q 150 527 191 532 z"},"?":{"x_min":0,"x_max":292,"ha":292,"o":"m 81 79 l 150 10 l 127 -13 l 58 56 z m 127 125 l 196 57 l 173 34 l 104 102 z m 204 290 l 200 294 q 233 337 233 402 q 233 461 200 504 q 271 485 271 404 q 271 331 204 290 z m 138 180 l 113 180 q 113 238 116 252 q 118 264 134 309 q 155 366 155 407 q 155 489 94 489 q 62 489 43 465 q 25 441 24 405 l 13 405 q 11 417 11 428 q 11 441 13 459 q 15 482 15 488 q 15 495 15 502 q 61 523 103 523 q 141 523 171 492 q 200 460 200 403 q 200 359 171 302 q 151 264 145 240 q 138 218 138 180 z"},"<":{"x_min":0,"x_max":667,"ha":667,"o":"m 595 -14 l 595 -61 l 72 161 l 72 200 l 595 421 l 595 374 l 128 181 z"},"'":{"x_min":0,"x_max":188,"ha":188,"o":"m 121 280 l 66 280 l 44 414 l 44 533 l 144 533 l 144 414 z"},"=":{"x_min":0,"x_max":667,"ha":667,"o":"m 72 45 l 72 88 l 595 88 l 595 45 z m 72 271 l 72 314 l 595 314 l 595 271 z"},"a":{"x_min":0,"x_max":427,"ha":427,"o":"m 96 178 q 65 140 65 94 q 65 40 104 5 q 74 12 51 35 q 27 57 27 93 q 27 156 96 178 z m 410 -6 l 316 0 l 316 253 q 316 292 309 310 q 301 329 280 342 q 323 333 338 312 q 353 289 353 231 l 353 80 q 353 42 364 25 q 374 8 410 3 z m 248 41 l 248 168 q 232 170 221 170 q 182 170 161 146 q 139 123 139 92 q 139 64 157 44 q 176 24 202 24 q 226 24 248 41 z m 248 195 l 248 247 q 248 282 234 302 q 219 321 177 321 q 112 321 67 272 l 55 284 q 73 314 112 334 q 151 354 193 354 q 284 354 284 254 l 284 0 q 262 -1 247 -6 l 248 20 q 224 -6 190 -6 q 151 -6 125 24 q 99 55 99 93 q 99 137 131 168 q 163 199 215 199 q 231 199 248 195 z"},"L":{"x_min":0,"x_max":531,"ha":531,"o":"m 399 0 l 173 0 l 173 515 q 207 516 248 519 q 286 521 283 521 l 283 512 q 245 502 229 473 q 214 443 214 385 l 214 172 q 214 125 219 87 q 223 47 229 42 q 234 36 257 36 l 360 36 q 414 36 450 53 q 485 70 512 120 l 522 120 q 519 97 500 46 q 488 14 484 -6 q 445 0 399 0 z m 35 521 l 138 515 l 138 0 l 108 0 q 80 0 35 -6 l 35 3 q 71 17 84 48 q 98 80 98 150 l 98 383 q 98 458 78 482 q 58 506 35 512 z"},"3":{"x_min":0,"x_max":417,"ha":417,"o":"m 303 -172 q 325 -156 341 -114 q 355 -74 355 -40 q 355 32 310 91 q 394 44 394 -42 q 394 -95 366 -129 q 339 -162 303 -172 z m 45 196 l 36 196 q 36 212 40 226 q 45 245 53 279 l 331 279 l 196 121 q 320 90 320 -40 q 320 -117 270 -162 q 219 -208 153 -208 q 105 -208 64 -179 q 25 -150 14 -88 l 28 -88 q 44 -133 80 -154 q 115 -175 152 -175 q 206 -175 243 -142 q 280 -108 280 -42 q 280 24 244 62 q 207 98 156 98 q 146 98 132 96 l 261 248 l 140 248 q 98 248 78 238 q 58 229 45 196 z m 63 344 l 386 344 l 358 311 l 58 311 z"},";":{"x_min":0,"x_max":198,"ha":198,"o":"m 59 29 l 29 59 l 53 83 l 127 10 q 104 -63 92 -83 q 80 -104 58 -122 l 41 -108 q 82 -70 82 -25 q 82 6 59 29 z m 74 104 l 99 129 l 169 60 l 145 35 z m 29 286 l 53 311 l 124 241 l 99 216 z m 74 332 l 99 356 l 169 287 l 145 262 z"},"J":{"x_min":0,"x_max":312,"ha":312,"o":"m 138 515 l 138 136 q 138 36 120 -26 q 102 -89 47 -136 q -7 -183 -81 -193 l -81 -185 q -16 -154 25 -110 q 65 -68 82 -17 q 98 34 98 114 l 98 406 q 98 458 85 480 q 71 502 34 510 l 34 521 q 104 516 138 515 z m 279 521 l 279 512 q 241 505 228 483 q 214 460 214 413 l 214 141 q 214 74 221 46 q 228 19 245 0 q 211 0 192 -9 q 173 -19 144 -53 q 161 -23 167 13 q 174 48 174 130 l 174 515 q 213 516 279 521 z"},"V":{"x_min":0,"x_max":646,"ha":646,"o":"m 255 377 l 377 147 l 491 386 q 515 436 515 461 q 515 500 477 512 l 477 521 q 476 521 504 518 q 542 515 563 515 q 580 515 636 521 l 636 512 q 604 498 583 475 q 563 452 530 382 l 377 63 l 142 515 q 186 515 248 521 l 248 512 q 219 504 219 477 q 219 447 255 377 z m 102 515 l 359 24 l 342 -11 l 334 -11 l 115 405 q 66 499 10 512 l 10 521 z"},"\"":{"x_min":0,"x_max":354,"ha":354,"o":"m 285 280 l 232 280 l 208 416 l 208 533 l 308 533 l 308 416 z m 124 280 l 70 280 l 46 416 l 46 533 l 146 533 l 146 416 z"},"7":{"x_min":0,"x_max":406,"ha":406,"o":"m 12 175 l 38 279 l 310 279 l 228 -63 q 206 -149 177 -181 q 148 -213 73 -235 l 68 -219 q 128 -194 150 -164 q 172 -135 191 -59 l 265 247 l 126 247 q 77 247 56 227 q 35 208 27 175 z m 257 -75 l 358 344 l 395 344 l 293 -73 q 283 -118 270 -136 q 257 -155 215 -181 q 241 -141 257 -75 z m 318 311 l 45 311 l 53 344 l 326 344 z"},"S":{"x_min":0,"x_max":448,"ha":448,"o":"m 48 169 l 60 169 q 63 107 110 66 q 156 26 215 26 q 261 26 290 52 q 319 78 319 114 q 319 152 291 173 q 264 194 185 220 q 122 241 95 254 q 63 271 46 298 q 27 326 27 360 q 27 399 53 436 q 47 417 47 403 q 47 365 65 336 q 83 306 111 291 q 138 275 202 255 q 286 230 323 199 q 358 169 358 119 q 358 70 321 30 q 284 -11 209 -11 q 179 -11 125 0 q 78 10 55 11 l 51 15 q 52 23 52 36 q 52 52 49 84 q 46 117 46 133 q 46 154 48 169 z m 393 374 l 383 374 q 382 430 338 458 q 294 484 232 484 q 183 484 151 463 q 119 442 119 413 q 119 382 145 364 q 171 344 249 317 q 321 292 350 277 q 380 260 401 228 q 421 195 421 155 q 421 94 376 60 q 393 83 393 124 q 393 163 375 193 q 356 224 328 242 q 300 261 236 282 q 140 313 110 336 q 81 359 81 407 q 81 463 126 495 q 171 525 253 525 q 310 525 391 506 l 391 502 l 392 484 q 392 469 393 449 q 394 424 394 405 q 394 392 393 374 z"},"}":{"x_min":0,"x_max":357,"ha":357,"o":"m 105 -101 q 107 6 110 35 q 113 63 133 87 q 153 112 202 115 q 172 100 162 83 q 150 65 146 50 q 144 42 142 11 q 141 -19 141 -55 q 141 -190 137 -233 q 131 -277 101 -309 q 69 -342 28 -342 q 22 -342 18 -341 l 18 -331 q 55 -321 76 -298 q 97 -273 102 -242 q 105 -208 105 -101 z m 178 -78 q 180 26 196 62 q 213 97 274 128 q 218 155 203 183 q 186 210 182 249 q 177 288 177 434 q 177 499 171 520 q 166 541 143 568 q 186 554 200 523 q 214 492 214 371 l 213 312 q 213 225 235 192 q 256 158 308 133 l 308 122 q 258 98 235 64 q 213 32 213 -56 l 214 -117 q 214 -237 200 -267 q 187 -299 143 -312 q 165 -286 171 -266 q 177 -246 177 -178 q 177 -153 178 -130 q 178 -107 178 -78 z m 105 443 q 104 511 83 543 q 62 575 18 586 l 18 597 q 59 597 90 575 q 122 552 132 510 q 142 467 142 349 q 142 324 141 311 q 141 300 141 279 q 141 214 154 187 q 167 159 202 140 q 154 144 134 167 q 114 190 110 219 q 105 248 105 443 z"},"Z":{"x_min":0,"x_max":542,"ha":542,"o":"m 101 0 l 480 515 l 527 515 l 175 36 l 332 36 q 424 36 463 66 q 501 95 521 141 l 533 141 q 532 120 515 65 q 499 14 497 -6 q 431 0 376 0 z m 435 515 l 56 0 l 8 0 l 362 479 l 191 479 q 111 479 78 461 q 44 442 26 388 l 15 388 q 16 411 23 465 q 27 492 27 502 q 27 504 26 521 q 76 515 160 515 z"},"x":{"x_min":0,"x_max":500,"ha":500,"o":"m 407 0 l 136 348 l 151 348 q 189 348 233 354 l 233 345 q 212 339 212 323 q 212 308 235 277 l 270 233 l 300 267 q 328 298 328 315 q 328 333 301 345 l 301 354 q 339 348 386 348 q 411 348 458 354 l 458 345 q 397 324 333 252 l 292 206 l 365 110 l 377 96 q 410 54 433 36 q 455 17 489 3 l 489 -6 q 475 -4 446 -2 q 417 0 407 0 z m 94 348 l 366 0 q 310 0 262 -6 l 262 3 q 289 10 289 28 q 289 44 259 82 l 223 127 l 189 89 q 162 59 162 36 q 162 13 186 3 l 186 -6 q 123 0 108 0 q 81 0 29 -6 l 29 3 q 77 16 152 101 l 201 156 l 106 276 q 69 324 11 345 l 11 354 q 27 351 94 348 z"},")":{"x_min":0,"x_max":281,"ha":281,"o":"m 132 -232 l 127 -229 q 213 -66 213 135 q 213 242 187 341 q 160 440 127 491 l 132 494 q 180 447 216 351 q 252 254 252 133 q 252 -103 132 -232 z m 20 -335 l 12 -331 q 45 -291 94 -152 q 142 -14 142 133 q 142 270 98 403 q 83 445 69 482 q 54 519 40 546 q 26 573 12 591 l 20 597 q 181 415 181 125 q 181 -19 135 -142 q 89 -265 20 -335 z"},"&":{"x_min":0,"x_max":656,"ha":656,"o":"m 83 230 q 69 191 69 152 q 69 99 96 56 q 123 12 162 -8 q 102 -4 64 33 q 25 70 25 122 q 25 183 83 230 z m 201 260 q 147 217 147 160 q 147 114 183 72 q 219 31 277 31 q 323 31 371 74 q 352 93 325 122 q 297 150 271 179 q 245 208 227 230 q 204 257 201 260 z m 399 48 q 337 -9 267 -9 q 195 -9 149 44 q 103 98 103 156 q 103 237 178 289 q 132 354 132 392 q 132 420 146 448 q 147 414 167 376 q 177 356 198 329 q 218 302 257 256 q 270 242 296 212 q 323 182 348 155 q 373 127 384 116 q 441 56 481 30 q 524 2 562 -6 q 545 -9 531 -9 q 487 -9 459 6 q 430 21 399 48 z m 269 355 l 279 344 q 340 375 340 428 q 340 458 323 475 q 307 491 279 491 q 249 491 234 476 q 219 461 219 445 q 219 415 269 355 z m 643 52 l 648 45 q 615 24 588 24 q 553 24 503 58 q 478 76 442 111 q 406 145 352 203 q 252 311 215 363 q 181 412 181 445 q 181 479 209 503 q 237 527 287 527 q 336 527 369 502 q 402 476 402 436 q 402 369 304 314 q 349 261 449 157 q 497 214 497 244 q 497 280 440 287 l 440 296 q 518 289 552 289 q 559 289 584 290 q 613 292 632 292 l 632 283 q 589 282 536 210 l 504 169 q 503 167 499 163 l 475 132 q 562 46 612 46 q 627 46 643 52 z"},"_":{"x_min":0,"x_max":500,"ha":500,"o":"m -6 -125 l -6 -75 l 506 -75 l 506 -125 z"},"v":{"x_min":0,"x_max":521,"ha":521,"o":"m 77 348 l 289 22 l 271 -6 l 268 -6 l 92 260 q 62 305 42 322 q 22 340 -3 345 l -3 354 q 48 349 77 348 z m 435 258 l 309 53 l 114 348 q 168 348 226 354 l 226 345 q 189 334 189 311 q 189 297 215 258 l 305 121 l 378 240 q 401 277 401 300 q 401 330 352 345 l 352 354 q 354 354 379 351 q 407 348 423 348 q 442 348 524 354 l 524 345 q 500 338 481 320 q 462 303 435 258 z"},"O":{"x_min":0,"x_max":646,"ha":646,"o":"m 520 50 q 573 123 573 268 q 573 396 520 468 q 621 408 621 263 q 621 119 520 50 z m 126 469 q 72 386 72 256 q 72 139 124 53 q 25 118 25 261 q 25 408 126 469 z m 491 259 q 491 493 321 493 q 155 493 155 253 q 155 28 323 28 q 491 28 491 259 z m 537 260 q 537 170 510 108 q 483 46 434 17 q 386 -13 322 -13 q 221 -13 165 60 q 109 133 109 260 q 109 393 166 463 q 223 533 321 533 q 421 533 479 463 q 537 394 537 260 z"},"(":{"x_min":0,"x_max":281,"ha":281,"o":"m 153 -229 l 149 -232 q 29 -103 29 133 q 29 256 65 352 q 102 447 149 494 l 153 491 q 123 442 96 343 q 68 243 68 135 q 68 -62 153 -229 z m 270 -331 l 262 -335 q 192 -265 146 -142 q 123 -79 112 -12 q 100 55 100 125 q 100 415 262 597 l 270 591 q 227 534 184 403 q 139 271 139 133 q 139 -10 186 -146 q 209 -215 229 -260 q 250 -304 270 -331 z"},"C":{"x_min":0,"x_max":573,"ha":573,"o":"m 132 446 q 77 374 77 255 q 77 115 146 45 q 93 67 62 125 q 32 182 32 253 q 32 303 48 344 q 63 385 84 408 q 104 430 132 446 z m 539 106 l 548 106 l 533 23 q 487 6 445 -2 q 403 -11 364 -11 q 246 -11 179 58 q 112 126 112 257 q 112 387 184 456 q 255 524 373 524 q 458 524 544 493 q 541 432 541 420 q 541 410 541 400 l 541 389 q 541 363 539 340 l 530 340 q 500 488 361 488 q 268 488 212 427 q 156 366 156 252 q 156 152 208 89 q 258 27 361 27 q 417 27 464 49 q 511 71 539 106 z"},"W":{"x_min":0,"x_max":844,"ha":844,"o":"m 381 515 l 585 29 l 570 -9 l 560 -9 l 434 289 l 340 73 l 145 515 q 148 515 194 517 l 215 518 l 247 521 l 247 512 q 216 500 216 474 q 216 448 240 394 l 340 166 l 415 335 l 384 409 q 363 458 344 479 q 326 500 289 512 l 289 521 q 337 516 381 515 z m 104 515 l 320 28 l 303 -9 l 294 -9 l 112 404 q 69 500 15 512 l 15 521 q 41 517 104 515 z m 513 389 l 604 170 l 682 358 q 708 421 708 456 q 708 501 665 512 l 665 521 q 719 515 744 515 q 788 515 829 521 l 829 512 q 795 492 775 465 q 754 436 723 361 l 604 74 l 420 515 q 479 517 524 521 l 524 512 q 491 500 491 471 q 491 443 513 389 z"},"A":{"x_min":0,"x_max":677,"ha":677,"o":"m 568 0 l 322 515 l 370 515 q 379 489 397 451 q 417 409 419 401 q 421 397 423 391 l 538 153 q 598 29 666 3 l 666 -6 q 600 0 568 0 z m 220 246 l 367 246 l 296 394 z m 428 118 l 385 209 l 201 209 l 154 118 q 154 118 152 112 q 151 111 145 98 q 134 77 134 56 q 134 19 175 3 l 175 -6 q 167 -6 146 -3 q 118 0 95 0 q 74 0 43 -3 q 22 -6 15 -6 l 15 3 q 69 30 113 116 l 275 431 q 256 469 224 489 q 191 510 148 512 l 148 521 l 165 521 q 188 521 228 518 q 270 515 283 515 l 529 0 q 482 -1 416 -6 l 416 3 q 453 9 453 43 q 453 68 428 118 z"},"f":{"x_min":0,"x_max":333,"ha":333,"o":"m 25 293 l 13 299 q 42 348 78 348 l 96 348 l 96 442 q 96 504 109 532 q 123 561 159 577 q 132 542 132 466 l 132 0 q 74 0 45 -6 l 45 3 q 80 20 87 39 q 96 58 96 117 l 96 315 l 75 315 q 45 315 25 293 z m 165 0 l 165 461 q 165 512 172 537 q 180 562 205 579 q 230 596 267 596 q 290 596 316 588 q 316 527 321 481 l 306 481 q 294 560 248 560 q 219 560 210 536 q 200 511 200 449 l 200 348 l 251 348 q 276 348 284 352 q 292 354 306 371 l 318 365 q 309 340 300 331 q 291 320 283 317 q 273 315 245 315 l 200 315 l 200 118 q 200 75 204 55 q 208 38 224 22 q 240 7 261 3 l 261 -6 q 208 0 165 0 z"},"Q":{"x_min":0,"x_max":646,"ha":646,"o":"m 520 50 q 573 123 573 268 q 573 396 520 468 q 621 408 621 263 q 621 119 520 50 z m 126 469 q 72 386 72 256 q 72 139 124 53 q 25 118 25 261 q 25 408 126 469 z m 491 259 q 491 493 321 493 q 155 493 155 253 q 155 28 323 28 q 491 28 491 259 z m 422 10 q 483 10 516 -3 q 548 -16 629 -65 q 762 -146 828 -146 q 881 -146 920 -118 l 925 -124 q 881 -175 814 -175 q 740 -175 605 -92 q 572 -71 542 -53 q 511 -35 500 -29 q 476 -18 446 -12 q 418 -6 373 -6 q 424 -17 558 -104 q 691 -192 775 -205 q 746 -215 725 -215 q 681 -215 633 -192 q 583 -169 498 -107 q 384 -26 333 -12 q 328 -13 320 -13 q 226 -13 167 57 q 109 127 109 260 q 109 393 166 463 q 223 533 321 533 q 420 533 479 464 q 537 394 537 260 q 537 71 422 10 z"},"w":{"x_min":0,"x_max":698,"ha":698,"o":"m 595 248 l 501 61 l 356 348 q 395 348 461 354 l 461 345 q 422 336 422 310 q 422 294 437 265 l 501 142 l 552 243 q 569 278 569 302 q 569 339 529 345 l 529 354 q 592 348 611 348 q 639 348 690 354 l 688 345 q 632 329 600 259 q 598 253 595 248 z m 319 348 l 483 24 l 466 -9 l 460 -9 l 349 213 l 272 61 l 126 348 q 192 351 213 354 l 213 345 q 188 336 188 317 q 188 304 202 275 l 272 139 l 329 251 l 313 282 q 288 332 244 345 l 244 354 q 280 350 319 348 z m 90 348 l 254 24 l 237 -9 l 232 -9 l 95 261 q 75 300 56 320 q 37 339 8 345 l 8 354 q 8 354 90 348 z"},"-":{"x_min":0,"x_max":323,"ha":323,"o":"m 62 112 l 50 112 q 65 141 79 148 q 93 155 125 155 l 201 155 q 245 155 263 166 q 282 176 294 204 l 309 204 q 290 119 215 119 l 102 119 q 73 119 62 112 z m 261 230 l 273 230 q 257 202 244 195 q 230 187 199 187 l 122 187 q 78 187 60 177 q 42 167 29 139 l 14 139 q 33 223 108 223 l 222 223 q 250 223 261 230 z"},"E":{"x_min":0,"x_max":531,"ha":531,"o":"m 124 515 l 140 515 l 140 0 l 108 0 q 91 0 36 -6 l 36 3 q 62 10 76 28 q 90 46 95 70 q 100 96 100 178 l 100 382 q 100 453 81 479 q 62 506 36 512 l 36 521 q 65 519 124 515 z m 371 0 l 175 0 l 175 515 l 317 515 q 357 515 469 521 q 468 506 468 499 q 468 489 470 453 q 472 429 472 427 l 472 415 l 463 415 q 446 457 423 469 q 401 481 339 481 l 261 481 q 243 481 227 479 q 218 462 217 399 l 216 366 l 216 287 l 321 287 q 381 287 400 297 q 420 307 432 346 l 442 346 q 438 302 438 270 q 438 249 441 216 q 442 206 444 177 l 433 177 q 429 220 407 236 q 385 252 338 252 l 216 252 l 216 146 q 216 84 223 38 q 243 35 267 35 l 341 35 q 401 35 432 49 q 464 63 496 112 l 505 112 q 500 89 489 60 q 476 22 470 -6 q 415 0 371 0 z"},"s":{"x_min":0,"x_max":365,"ha":365,"o":"m 42 130 l 49 130 q 64 84 98 54 q 132 24 171 24 q 202 24 224 40 q 246 55 246 76 q 246 99 224 112 q 201 126 142 138 q 83 151 54 176 q 25 200 25 237 q 25 266 44 292 q 42 279 42 269 q 42 245 57 223 q 71 203 96 192 q 120 181 178 167 q 232 154 257 135 q 282 116 282 80 q 282 42 251 17 q 221 -7 163 -7 q 111 -7 44 18 q 44 55 42 71 q 41 85 41 102 q 41 111 42 130 z m 321 236 l 314 236 q 297 281 259 304 q 222 326 184 326 q 154 326 131 314 q 109 302 109 280 q 109 263 125 253 q 141 245 187 235 q 282 215 310 184 q 337 152 337 118 q 337 88 310 51 q 314 69 314 82 q 314 119 289 150 q 264 181 172 203 q 118 215 97 231 q 75 247 75 278 q 75 313 107 335 q 138 356 199 356 q 257 356 318 332 q 317 320 317 319 q 317 301 319 281 q 321 263 321 236 z"},">":{"x_min":0,"x_max":667,"ha":667,"o":"m 72 374 l 72 421 l 595 199 l 595 160 l 72 -61 l 72 -14 l 538 179 z"},"l":{"x_min":0,"x_max":281,"ha":281,"o":"m 271 19 l 273 8 q 250 -10 222 -10 q 182 -10 163 21 q 144 51 144 124 l 144 590 q 173 591 185 593 q 180 509 180 473 l 180 146 q 180 85 183 63 q 186 41 201 27 q 215 13 242 13 q 256 13 271 19 z m 111 590 l 111 125 q 111 58 119 38 q 126 17 142 -4 q 115 4 101 21 q 86 37 81 64 q 76 89 76 151 l 76 479 q 76 523 72 539 q 68 556 55 570 q 41 583 19 587 l 19 596 q 34 596 65 593 q 81 591 111 590 z"},"8":{"x_min":0,"x_max":406,"ha":406,"o":"m 149 254 q 81 207 81 133 q 81 76 112 47 q 142 19 185 19 q 229 19 257 49 q 286 79 286 124 q 286 159 271 182 q 256 205 221 221 q 199 231 149 254 z m 120 268 q 30 315 30 391 q 30 448 83 483 q 61 453 61 411 q 61 373 84 340 q 106 307 196 271 q 251 249 271 236 q 293 221 309 194 q 325 165 325 128 q 325 67 284 29 q 242 -9 184 -9 q 124 -9 77 33 q 30 76 30 135 q 30 210 120 268 z m 233 327 q 288 362 288 417 q 288 457 267 482 q 245 508 208 508 q 171 508 149 482 q 126 457 126 420 q 126 394 145 374 q 164 354 233 327 z m 260 316 q 379 263 379 170 q 379 123 349 84 q 356 107 356 133 q 356 188 329 226 q 302 263 218 296 q 128 331 110 361 q 92 391 92 419 q 92 464 125 500 q 159 535 210 535 q 257 535 296 503 q 334 472 334 423 q 334 358 260 316 z"},"\\":{"x_min":0,"x_max":500,"ha":500,"o":"m 402 -18 l 55 596 l 98 596 l 445 -18 z"},"e":{"x_min":0,"x_max":469,"ha":469,"o":"m 105 39 l 104 36 q 30 79 30 169 q 30 205 43 237 q 56 270 98 303 l 101 301 q 70 248 70 173 q 70 95 105 39 z m 447 196 l 403 196 q 401 285 357 326 q 436 293 447 196 z m 148 232 l 322 232 q 320 267 299 294 q 278 322 238 322 q 202 322 178 297 q 153 272 148 232 z m 371 196 l 145 196 q 144 171 144 166 q 144 103 178 64 q 213 26 269 26 q 314 26 352 51 q 389 76 410 118 l 431 118 q 386 -11 260 -11 q 185 -11 144 42 q 103 94 103 174 q 103 251 141 303 q 178 354 239 354 q 288 354 325 317 q 361 281 371 196 z"},"b":{"x_min":0,"x_max":510,"ha":510,"o":"m 409 48 q 441 97 441 176 q 441 258 396 326 q 480 283 480 181 q 480 89 409 48 z m 112 590 l 112 160 q 112 96 117 70 q 123 46 142 26 q 105 36 90 60 q 76 83 76 137 l 76 479 q 76 523 71 540 q 67 556 54 569 q 40 581 14 587 l 14 596 q 65 591 112 590 z m 180 300 l 180 152 q 180 103 186 81 q 192 58 212 42 q 232 27 262 27 q 303 27 335 62 q 368 98 368 170 q 368 326 261 326 q 223 326 180 300 z m 145 139 l 145 590 q 172 591 187 596 q 180 541 180 454 l 180 336 q 221 358 265 358 q 308 358 342 334 q 376 311 392 269 q 408 228 408 178 q 408 91 366 42 q 324 -6 261 -6 q 220 -6 191 15 q 163 35 154 61 q 145 87 145 139 z"},"%":{"x_min":0,"x_max":781,"ha":781,"o":"m 478 6 q 442 17 422 50 q 401 83 401 118 q 401 157 424 188 q 445 219 479 236 q 439 191 439 121 q 439 45 478 6 z m 680 0 q 723 44 723 119 q 723 192 683 241 q 763 201 763 125 q 763 50 680 0 z m 511 116 q 511 19 580 19 q 611 19 631 44 q 650 70 650 120 q 650 221 580 221 q 511 221 511 116 z m 473 116 q 473 185 505 219 q 537 253 583 253 q 625 253 656 221 q 688 188 688 118 q 688 55 657 21 q 625 -15 580 -15 q 531 -15 502 22 q 473 58 473 116 z m 95 297 q 59 309 39 341 q 19 375 19 409 q 19 444 40 478 q 62 512 96 527 q 56 482 56 412 q 56 337 95 297 z m 297 291 q 340 334 340 410 q 340 488 299 532 q 380 492 380 417 q 380 341 297 291 z m 205 0 l 148 0 q 167 21 175 30 l 192 51 q 194 53 197 57 l 553 496 q 580 529 588 543 l 644 543 q 617 515 577 466 l 248 60 q 229 36 205 0 z m 128 407 q 128 310 197 310 q 228 310 248 335 q 268 361 268 411 q 268 512 197 512 q 128 512 128 407 z m 90 407 q 90 476 123 510 q 154 544 199 544 q 246 544 275 510 q 304 476 304 409 q 304 346 273 312 q 243 276 196 276 q 148 276 119 313 q 90 349 90 407 z"},"m":{"x_min":0,"x_max":812,"ha":812,"o":"m 699 0 l 699 253 q 699 294 693 312 q 687 330 667 346 q 705 341 720 320 q 735 299 735 251 l 735 105 q 735 56 748 33 q 761 10 794 3 l 794 -6 q 738 0 699 0 z m 118 348 l 118 0 q 62 -1 26 -6 l 26 3 q 60 15 71 36 q 82 57 82 102 l 82 249 q 82 292 69 315 q 57 337 26 345 l 26 354 q 33 352 118 348 z m 150 0 l 150 348 q 176 351 189 354 q 188 335 187 325 q 251 358 301 358 q 350 358 372 334 q 393 309 393 263 l 393 0 q 356 0 300 -6 l 300 3 q 333 12 345 35 q 356 57 356 101 l 356 256 q 356 293 344 310 q 332 326 293 326 q 251 326 187 294 l 187 98 q 187 57 199 36 q 211 14 246 3 l 246 -6 q 202 0 150 0 z m 424 0 l 424 269 q 424 329 395 348 q 433 346 449 317 q 512 358 576 358 q 606 358 630 344 q 654 330 660 311 q 667 292 667 250 l 667 0 q 644 -1 623 -3 q 630 35 630 92 l 630 237 q 630 278 626 292 q 623 307 608 318 q 593 329 569 329 q 525 329 460 294 q 462 290 462 267 l 462 99 q 462 54 475 31 q 487 10 520 3 l 520 -6 q 447 0 424 0 z"},"#":{"x_min":0,"x_max":667,"ha":667,"o":"m 466 420 l 243 420 l 201 223 l 424 223 z m 46 420 l 46 463 l 209 463 l 252 667 l 295 667 l 252 463 l 474 463 l 517 667 l 560 667 l 517 463 l 621 463 l 621 420 l 508 420 l 467 222 l 621 222 l 621 179 l 458 179 l 417 -23 l 373 -23 l 416 179 l 192 179 l 151 -23 l 107 -23 l 149 179 l 46 179 l 46 222 l 159 222 l 200 420 z"},",":{"x_min":0,"x_max":198,"ha":198,"o":"m 59 29 l 29 59 l 53 83 l 127 10 q 104 -63 92 -83 q 80 -104 58 -122 l 41 -108 q 82 -70 82 -25 q 82 6 59 29 z m 74 104 l 99 129 l 169 60 l 145 35 z"},"n":{"x_min":0,"x_max":542,"ha":542,"o":"m 430 0 l 430 238 q 430 288 423 310 q 417 330 392 345 q 425 343 445 322 q 465 301 465 227 l 465 113 q 465 71 470 54 q 474 35 490 21 q 506 7 527 3 l 527 -6 q 511 -4 474 -2 q 437 0 430 0 z m 119 348 l 119 0 q 69 -2 32 -6 l 32 3 q 54 10 68 29 q 83 48 83 121 l 83 241 q 83 290 72 313 q 60 335 24 345 l 24 354 q 47 351 119 348 z m 154 0 l 154 348 q 180 349 193 351 l 189 325 q 250 355 303 355 q 336 355 360 339 q 384 322 390 300 q 396 278 396 229 l 396 0 q 375 -1 356 -3 q 360 58 360 83 l 360 238 q 360 286 346 306 q 332 326 295 326 q 256 326 189 293 l 189 95 q 189 17 247 3 l 247 -6 q 188 0 154 0 z"},"h":{"x_min":0,"x_max":531,"ha":531,"o":"m 421 0 l 421 249 q 421 292 412 311 q 402 330 376 342 q 421 339 439 317 q 457 296 457 244 l 457 93 q 457 14 518 3 l 518 -6 q 463 -1 421 0 z m 146 0 l 146 590 q 165 590 189 593 q 183 485 183 454 l 183 330 q 228 354 284 354 q 323 354 356 332 q 389 311 389 249 l 389 0 l 348 0 q 353 76 353 124 l 353 221 q 353 261 347 280 q 342 298 323 311 q 304 322 275 322 q 227 322 183 301 l 183 114 q 183 59 192 39 q 202 17 235 3 l 235 -6 q 162 0 146 0 z m 114 590 l 114 0 q 83 -1 21 -6 l 21 3 q 56 13 67 39 q 78 63 78 130 l 78 479 q 78 533 66 557 q 55 579 21 587 l 21 596 q 85 591 114 590 z"},"z":{"x_min":0,"x_max":417,"ha":417,"o":"m 281 0 l 106 0 l 353 348 q 360 349 397 354 l 172 33 l 263 33 q 314 33 338 52 q 362 71 372 117 l 382 117 q 382 99 376 59 q 371 24 368 -3 q 333 -2 293 0 q 290 0 281 0 z m 142 348 l 310 348 l 64 0 q 57 0 20 -3 l 246 317 l 126 317 q 85 317 64 300 q 42 283 35 236 l 26 236 q 26 258 28 275 q 33 322 33 341 q 33 342 32 354 q 96 348 142 348 z"},"B":{"x_min":0,"x_max":542,"ha":542,"o":"m 421 14 q 466 61 466 135 q 466 214 419 263 q 512 229 512 139 q 512 94 486 60 q 460 25 421 14 z m 397 290 q 427 329 427 383 q 427 425 410 459 q 393 494 371 505 q 419 495 445 464 q 471 432 471 394 q 471 359 449 329 q 428 300 397 290 z m 136 515 l 136 0 q 93 -1 33 -6 l 33 3 q 96 20 96 135 l 96 390 q 96 491 33 512 l 33 521 q 84 516 136 515 z m 261 249 l 212 249 l 212 161 q 212 68 232 44 q 249 31 283 31 q 340 31 365 64 q 388 97 388 142 q 388 177 373 203 q 357 229 334 239 q 309 249 261 249 z m 212 381 l 212 283 l 250 283 q 296 283 322 309 q 347 334 347 382 q 347 431 320 457 q 292 482 254 482 q 233 482 221 472 q 212 446 212 381 z m 172 0 l 172 515 l 255 521 q 317 521 354 482 q 390 443 390 383 q 390 308 325 274 q 430 250 430 137 q 430 80 396 37 q 360 -6 282 -6 q 253 -6 220 -2 q 189 0 172 0 z"},"K":{"x_min":0,"x_max":646,"ha":646,"o":"m 137 515 l 137 0 q 112 0 38 -6 l 38 3 q 97 15 97 94 l 97 417 q 97 460 85 481 q 73 502 38 512 l 38 521 q 85 516 137 515 z m 235 298 l 506 0 l 453 0 l 214 266 l 214 94 q 214 53 227 33 q 240 13 274 3 l 274 -6 q 210 0 173 0 l 173 515 q 240 517 274 521 l 274 512 q 238 503 226 479 q 214 455 214 371 l 214 281 z m 575 0 l 554 0 l 263 320 l 375 410 q 433 456 433 480 q 433 499 401 512 l 401 521 q 423 521 460 517 q 493 515 509 515 q 524 515 547 517 q 580 519 609 521 l 609 512 q 540 494 459 431 l 426 406 q 422 403 420 401 l 317 318 l 512 103 q 600 4 645 3 l 645 -6 q 577 0 575 0 z"},"R":{"x_min":0,"x_max":688,"ha":688,"o":"m 438 275 q 470 325 470 386 q 470 441 433 497 q 517 461 517 384 q 517 307 438 275 z m 141 515 l 141 0 l 120 0 q 107 0 81 -3 q 59 -6 28 -6 l 28 3 q 60 6 80 34 q 101 61 101 139 l 101 390 q 101 497 28 512 l 28 521 q 60 517 141 515 z m 217 380 l 217 274 q 246 267 279 267 q 389 267 389 381 q 389 488 280 488 q 245 488 226 474 q 217 455 217 380 z m 190 0 l 176 0 l 176 515 q 206 515 239 517 q 277 521 301 521 q 368 521 400 479 q 433 439 433 379 q 433 278 348 250 q 390 244 419 225 q 450 204 512 141 q 607 44 667 44 q 680 44 692 52 l 694 43 q 675 18 640 18 q 603 18 562 46 q 524 72 449 149 q 358 243 272 243 q 325 227 416 131 q 480 65 519 35 q 558 4 593 4 l 593 0 q 577 -6 561 -6 q 513 -6 479 18 q 460 31 431 58 q 403 85 363 128 q 304 191 276 213 q 246 236 217 246 l 217 130 q 217 13 287 3 l 287 -6 q 229 0 190 0 z"},"T":{"x_min":0,"x_max":615,"ha":615,"o":"m 340 0 l 327 0 l 327 515 l 503 515 q 551 515 598 521 q 598 511 597 487 q 595 464 595 431 q 595 409 593 387 l 581 387 q 580 427 561 454 q 542 480 479 480 l 368 480 l 368 131 q 368 71 385 41 q 402 10 438 3 l 438 -6 q 351 0 340 0 z m 130 515 l 291 515 l 291 0 l 276 0 q 245 0 182 -6 l 182 3 q 222 13 237 44 q 252 75 252 147 l 252 480 l 127 480 q 80 480 61 461 q 41 441 28 387 l 17 387 q 16 394 16 401 q 16 411 18 426 q 24 478 24 521 q 50 517 88 516 z"},"P":{"x_min":0,"x_max":562,"ha":562,"o":"m 436 228 q 489 282 489 358 q 489 438 436 498 q 534 458 534 363 q 534 270 436 228 z m 139 515 l 139 0 l 123 0 q 91 0 30 -6 l 30 3 q 55 6 77 32 q 98 58 98 140 l 98 377 q 98 445 83 474 q 68 502 30 512 l 30 521 q 95 516 139 515 z m 214 364 l 214 257 q 248 243 286 243 q 348 243 379 277 q 410 312 410 363 q 410 417 379 452 q 348 487 283 487 q 247 487 230 476 q 214 464 214 364 z m 210 0 l 174 0 l 174 515 q 187 515 193 515 q 221 516 247 519 q 264 521 285 521 q 372 521 413 475 q 453 429 453 361 q 453 291 409 250 q 364 207 293 207 q 253 207 214 221 l 214 134 q 214 70 232 40 q 250 8 290 3 l 290 -6 q 270 -3 239 -1 z"},"|":{"x_min":0,"x_max":500,"ha":500,"o":"m 229 -333 l 229 596 l 272 596 l 272 -333 z"},"t":{"x_min":0,"x_max":365,"ha":365,"o":"m 78 126 l 78 308 l 46 308 l 46 312 l 114 375 l 114 97 q 114 49 123 31 q 132 12 148 2 q 108 5 93 32 q 78 58 78 126 z m 183 450 l 183 341 l 266 341 q 289 341 301 346 q 313 352 330 368 l 342 368 q 312 327 300 317 q 288 308 263 308 l 183 308 l 183 121 q 183 80 187 64 q 191 49 206 38 q 221 27 249 27 q 303 27 342 78 l 353 72 q 312 -6 236 -6 q 204 -6 182 9 q 159 23 152 46 q 145 69 145 112 l 145 406 q 165 427 183 450 z"},"M":{"x_min":0,"x_max":771,"ha":771,"o":"m 389 174 l 545 515 l 583 515 l 605 0 l 586 0 q 566 0 533 -3 l 500 -6 l 500 3 q 559 19 559 108 q 559 106 558 141 l 545 425 l 389 83 l 187 515 l 229 515 z m 642 0 l 618 515 l 635 515 q 670 515 735 521 l 735 512 q 701 506 683 480 q 664 455 664 419 l 665 367 l 676 133 q 679 69 696 39 q 713 8 750 3 l 750 -6 q 677 0 642 0 z m 147 515 l 370 41 l 347 -6 l 145 425 l 132 133 q 131 89 131 97 q 131 12 197 3 l 197 -6 q 197 -6 184 -4 q 129 0 111 0 q 88 0 27 -6 l 27 3 q 89 19 94 130 l 108 463 q 80 500 27 512 l 27 521 q 66 516 111 516 z"},"g":{"x_min":0,"x_max":583,"ha":583,"o":"m 52 -195 q 98 -294 226 -325 q 201 -333 174 -333 q 112 -333 78 -297 q 44 -262 44 -222 q 44 -210 52 -195 z m 111 328 q 73 274 73 204 q 73 143 101 95 q 71 102 52 135 q 32 167 32 203 q 32 248 55 281 q 78 314 111 328 z m 564 351 l 577 349 q 571 288 535 288 q 518 288 491 302 q 466 316 452 316 q 425 316 411 293 l 412 291 q 422 294 427 294 q 442 294 472 274 q 495 259 516 259 q 532 259 543 267 l 547 261 q 526 234 500 234 q 481 234 455 254 q 435 270 422 273 q 438 238 438 205 q 438 115 366 87 q 397 134 397 204 q 397 287 353 340 q 383 328 397 311 q 427 349 458 349 q 476 349 500 336 q 525 322 536 322 q 555 322 564 351 z m 179 -101 q 126 -129 126 -162 q 126 -196 168 -227 q 210 -258 271 -258 q 313 -258 342 -240 q 371 -222 371 -197 q 371 -178 347 -162 q 324 -147 258 -127 q 201 -111 179 -101 z m 146 205 q 146 89 236 89 q 276 89 301 119 q 325 149 325 205 q 325 265 300 294 q 274 324 237 324 q 198 324 172 295 q 146 265 146 205 z m 157 -92 q 95 -63 95 -20 q 95 34 183 68 q 105 100 105 205 q 105 273 143 313 q 179 354 234 354 q 290 354 328 314 q 365 276 365 203 q 365 71 243 54 q 191 46 191 23 q 191 10 206 3 q 221 -4 286 -21 q 388 -49 430 -83 q 472 -118 472 -171 q 472 -226 428 -254 l 426 -252 q 443 -228 443 -192 q 443 -142 403 -110 q 361 -79 279 -58 q 201 -37 182 -27 q 161 -17 161 1 q 161 19 184 46 q 134 26 134 -11 q 134 -32 153 -46 q 171 -61 240 -82 q 339 -111 374 -133 q 408 -156 408 -192 q 408 -232 370 -263 q 331 -294 270 -294 q 195 -294 140 -252 q 85 -209 85 -165 q 85 -122 157 -92 z"},"j":{"x_min":0,"x_max":250,"ha":250,"o":"m 73 -91 l 73 348 l 108 348 l 108 -84 q 108 -170 99 -207 q 87 -251 52 -281 q 16 -312 -26 -317 l -26 -304 q 5 -293 32 -264 q 57 -235 65 -199 q 73 -163 73 -91 z m 143 -82 l 143 348 l 179 348 l 179 -79 q 179 -153 167 -185 q 154 -217 117 -247 q 134 -217 137 -192 q 140 -173 143 -82 z m 77 510 l 142 449 l 119 426 l 54 487 z m 123 557 l 188 496 l 165 472 l 100 534 z"},"i":{"x_min":0,"x_max":281,"ha":281,"o":"m 143 113 l 143 348 l 179 348 l 179 106 q 179 17 241 17 q 261 17 274 25 l 274 14 q 249 -6 219 -6 q 192 -6 173 10 q 153 27 148 48 q 143 68 143 113 z m 74 122 l 74 348 l 110 348 l 110 104 q 110 51 121 28 q 131 4 155 -6 l 140 -6 q 107 8 90 35 q 74 61 74 122 z m 93 511 l 162 447 l 138 422 l 70 486 z m 138 560 l 207 496 l 184 471 l 115 535 z"},"y":{"x_min":0,"x_max":542,"ha":542,"o":"m 312 -186 l 312 -195 l 159 -226 l 275 0 l 110 256 q 58 336 2 345 l 2 354 q 33 350 91 345 l 315 0 l 264 -99 q 248 -131 248 -150 q 248 -168 265 -177 q 282 -187 298 -187 q 300 -187 312 -186 z m 440 240 l 333 36 l 131 345 q 206 349 241 354 l 241 345 q 205 335 205 311 q 205 294 226 262 l 329 104 l 397 236 q 420 282 420 301 q 420 333 373 345 l 373 354 q 371 354 401 351 q 440 348 463 348 q 496 348 540 354 l 540 345 q 482 322 440 240 z"},"@":{"x_min":0,"x_max":802,"ha":802,"o":"m 520 325 q 520 387 484 425 q 448 464 394 464 q 312 464 259 381 q 206 298 206 206 q 206 133 242 90 q 277 46 332 46 q 377 46 425 89 q 471 132 496 205 q 520 275 520 325 z m 542 414 l 559 495 l 620 495 l 537 103 q 531 76 531 63 q 531 44 555 44 q 613 44 680 125 q 746 207 746 326 q 746 459 664 550 q 581 641 420 641 q 250 641 146 529 q 40 417 40 250 q 40 83 146 -24 q 253 -130 421 -130 q 638 -130 753 23 l 803 23 q 678 -169 425 -169 q 234 -169 117 -53 q 0 62 0 254 q 0 373 53 473 q 81 523 117 561 q 153 599 201 626 q 294 681 423 681 q 536 681 616 638 q 695 595 741 510 q 787 425 787 326 q 787 184 703 92 q 619 0 535 0 q 476 0 476 52 q 476 64 480 90 q 403 0 313 0 q 239 0 191 60 q 144 119 144 207 q 144 275 177 350 q 209 424 269 465 q 328 507 393 507 q 490 507 542 414 z"},".":{"x_min":0,"x_max":198,"ha":198,"o":"m 29 59 l 53 83 l 124 14 l 99 -11 z m 74 104 l 99 129 l 169 60 l 145 35 z"},"p":{"x_min":0,"x_max":542,"ha":542,"o":"m 430 29 l 427 34 q 473 82 473 176 q 473 262 427 321 l 430 324 q 513 270 513 177 q 513 133 491 91 q 469 49 430 29 z m 117 348 l 117 -300 l 79 -303 q 82 -231 82 -149 l 82 232 q 82 274 78 294 q 74 312 59 326 q 43 341 20 345 l 20 354 q 37 354 67 351 q 97 348 117 348 z m 187 277 l 187 48 q 223 24 272 24 q 325 24 363 62 q 399 99 399 174 q 399 245 367 285 q 334 325 287 325 q 231 325 187 277 z m 152 -300 l 152 348 q 178 350 189 351 q 188 332 187 319 q 236 356 287 356 q 360 356 400 303 q 440 250 440 173 q 440 99 396 44 q 353 -10 276 -10 q 234 -10 187 11 l 187 -186 q 187 -231 193 -250 q 199 -269 219 -283 q 239 -296 275 -298 l 275 -306 l 262 -306 q 252 -306 222 -304 q 188 -301 152 -300 z"},"X":{"x_min":0,"x_max":646,"ha":646,"o":"m 97 515 l 512 0 q 440 -1 390 -6 l 390 3 q 416 13 416 33 q 416 58 375 108 l 288 217 l 197 108 q 160 62 160 42 q 160 12 193 3 l 193 -6 q 102 0 98 0 q 69 0 12 -6 l 12 3 q 62 20 119 77 q 174 132 188 154 q 190 156 195 162 l 265 246 l 138 404 q 62 499 -1 512 l -1 521 q 39 517 97 515 z m 556 0 l 143 515 q 202 516 247 521 l 247 512 q 230 501 230 487 q 230 465 273 412 l 336 334 l 393 402 q 437 455 437 479 q 437 500 399 512 l 399 521 q 476 515 497 515 q 507 515 579 521 l 579 512 q 548 504 521 485 q 493 466 447 412 l 359 306 l 479 156 q 588 21 647 3 l 647 -6 q 590 0 556 0 z"},"*":{"x_min":0,"x_max":354,"ha":354,"o":"m 178 420 l 249 319 l 222 300 l 178 366 l 131 300 l 104 319 z m 205 440 l 323 475 l 333 446 l 256 424 l 304 357 l 276 338 z m 151 439 l 77 340 l 51 360 l 100 423 l 22 448 l 33 479 z m 194 471 l 194 594 l 225 594 l 225 514 l 304 540 l 313 507 z m 161 471 l 43 511 l 54 542 l 129 515 l 129 594 l 161 594 z"},"Y":{"x_min":0,"x_max":698,"ha":698,"o":"m 106 515 l 359 246 l 359 0 l 348 0 q 305 0 250 -6 l 250 3 q 282 10 300 35 q 318 59 318 128 l 318 235 l 163 399 q 74 492 2 512 l 2 521 q 43 515 90 515 z m 397 0 l 397 260 l 153 515 l 167 515 q 225 515 287 521 l 287 512 q 258 503 258 484 q 258 459 316 398 l 419 290 l 516 403 q 548 440 548 470 q 548 504 515 512 l 515 521 q 526 521 574 517 q 594 515 609 515 q 618 515 695 521 l 695 512 q 659 501 636 482 q 614 463 585 429 q 584 426 579 420 l 437 254 l 437 130 q 437 17 507 3 l 507 -6 q 417 0 415 0 z"},"c":{"x_min":0,"x_max":448,"ha":448,"o":"m 118 319 q 67 273 67 176 q 67 83 110 36 q 70 53 49 93 q 27 135 27 176 q 27 208 40 238 q 51 269 68 285 q 85 302 118 319 z m 407 112 l 426 112 q 412 59 371 25 q 329 -10 267 -10 q 211 -10 178 13 q 144 36 123 74 q 100 112 100 170 q 100 250 144 302 q 187 354 282 354 q 348 354 414 330 q 414 325 413 316 q 412 311 412 307 q 412 291 415 263 q 416 246 416 240 q 416 231 414 214 l 403 214 q 392 268 355 297 q 320 325 270 325 q 213 325 177 287 q 140 250 140 181 q 140 113 173 68 q 206 24 270 24 q 358 24 407 112 z"},"!":{"x_min":0,"x_max":208,"ha":208,"o":"m 104 -13 l 33 59 l 57 83 l 128 12 z m 151 34 l 80 106 l 104 130 l 176 59 z m 87 515 l 87 184 l 69 184 l 47 408 q 42 461 35 481 q 28 502 10 512 l 10 521 q 24 518 87 515 z m 158 386 l 139 184 l 120 184 l 120 515 q 179 519 198 521 l 198 512 q 183 504 174 485 q 166 465 158 386 z"},"/":{"x_min":0,"x_max":500,"ha":500,"o":"m 57 -18 l 400 596 l 443 596 l 99 -18 z"},"[":{"x_min":0,"x_max":281,"ha":281,"o":"m 82 -332 l 82 593 q 94 591 117 590 l 117 -329 q 100 -330 82 -332 z m 150 -329 l 150 590 q 190 590 231 594 q 254 596 271 596 l 271 586 q 230 583 208 563 q 186 544 186 483 l 186 -227 q 186 -275 204 -299 q 222 -323 271 -326 l 271 -335 q 252 -335 210 -332 q 192 -330 150 -329 z"},"6":{"x_min":0,"x_max":458,"ha":458,"o":"m 362 34 q 398 84 398 169 q 398 239 370 298 q 439 253 439 166 q 439 77 362 34 z m 104 405 q 62 320 62 206 q 62 112 92 55 q 23 125 23 224 q 23 339 104 405 z m 140 277 q 135 249 135 209 q 135 19 236 19 q 271 19 298 56 q 325 92 325 171 q 325 238 299 274 q 273 310 224 310 q 180 310 140 277 z m 354 543 l 354 527 q 272 513 216 452 q 162 390 149 320 q 192 347 231 347 q 288 347 326 301 q 363 255 363 171 q 363 79 324 34 q 284 -11 231 -11 q 169 -11 132 44 q 95 98 95 204 q 95 276 121 358 q 147 439 207 490 q 266 540 354 543 z"},"r":{"x_min":0,"x_max":396,"ha":396,"o":"m 117 348 l 117 0 q 45 -1 20 -6 l 20 3 q 60 17 71 38 q 83 59 83 114 l 83 240 q 83 292 69 315 q 55 338 20 345 l 20 354 q 35 351 117 348 z m 152 0 l 152 348 q 168 349 191 354 q 188 334 188 288 q 239 354 261 354 q 273 354 308 339 q 337 327 348 327 q 362 327 380 347 q 381 348 382 349 q 382 350 386 354 l 397 348 q 374 295 337 295 q 324 295 288 312 q 272 318 265 318 q 241 318 215 288 q 228 292 236 292 q 250 292 287 275 q 313 264 325 264 q 333 264 341 269 q 317 238 294 238 q 284 238 261 250 q 227 266 214 266 q 201 266 188 252 l 188 104 q 188 54 204 31 q 220 8 255 3 l 255 -6 q 198 0 152 0 z"},"2":{"x_min":0,"x_max":396,"ha":396,"o":"m 57 32 l 343 32 l 330 0 l 136 0 q 92 0 24 -6 z m 372 133 l 382 133 l 355 65 l 85 65 l 142 130 q 174 167 193 191 q 212 215 221 229 q 239 257 239 289 q 239 328 208 353 q 178 376 140 376 q 101 376 76 352 q 51 327 51 284 q 51 266 56 247 l 39 240 q 21 268 21 297 q 21 347 60 380 q 97 414 148 414 q 203 414 242 376 q 281 338 281 291 q 281 225 189 135 q 187 133 185 131 q 183 128 180 126 l 152 96 l 257 96 q 309 96 333 104 q 355 112 372 133 z m 83 433 q 120 474 182 474 q 242 474 284 434 q 326 394 326 338 q 326 311 310 287 q 310 358 263 402 q 215 445 147 445 q 116 445 83 433 z"},"{":{"x_min":0,"x_max":357,"ha":357,"o":"m 251 -101 q 251 -209 255 -242 q 259 -272 281 -297 q 302 -321 339 -331 l 339 -341 q 298 -341 267 -319 q 234 -296 225 -255 q 215 -213 215 -94 q 215 -82 216 -55 q 216 -45 216 -24 q 216 42 203 69 q 189 97 155 115 q 205 112 224 87 q 244 63 247 35 q 250 6 251 -101 z m 179 -78 q 179 -122 179 -178 q 179 -244 185 -264 q 191 -284 214 -312 q 176 -301 160 -272 q 144 -244 144 -175 l 144 -56 q 144 31 122 64 q 101 97 49 122 l 49 133 q 99 157 122 191 q 144 224 144 312 l 143 371 q 143 492 157 523 q 171 554 214 568 q 192 542 186 521 q 179 501 179 434 q 179 280 173 239 q 167 199 149 175 q 131 151 83 128 q 144 97 161 61 q 177 25 179 -78 z m 251 443 q 251 275 248 234 q 245 189 223 167 q 201 145 155 140 q 184 155 195 172 q 206 189 211 206 q 216 221 216 311 q 216 445 220 489 q 225 532 256 565 q 288 597 328 597 q 334 597 339 597 l 339 586 q 294 575 273 543 q 252 511 251 443 z"},"9":{"x_min":0,"x_max":458,"ha":458,"o":"m 99 313 q 62 252 62 170 q 62 96 99 35 q 23 83 23 171 q 23 208 38 245 q 52 282 99 313 z m 347 -89 q 393 2 393 126 q 393 244 339 327 q 434 262 434 122 q 434 -13 347 -89 z m 315 63 q 320 117 320 138 q 320 224 295 275 q 271 326 224 326 q 184 326 161 285 q 138 245 138 167 q 138 96 164 64 q 190 32 229 32 q 271 32 315 63 z m 141 -220 l 137 -203 q 286 -136 308 31 q 258 2 224 2 q 164 2 130 44 q 96 86 96 169 q 96 258 131 307 q 166 355 225 355 q 292 355 326 289 q 359 223 359 121 q 359 -11 301 -103 q 243 -195 141 -220 z"}," ":{"x_min":0,"x_max":245,"ha":245,"o":""},"I":{"x_min":0,"x_max":344,"ha":344,"o":"m 190 0 l 190 515 q 250 515 297 521 l 297 512 q 269 506 250 480 q 230 454 230 370 l 230 137 q 230 62 250 36 q 271 10 297 3 l 297 -6 q 251 0 190 0 z m 153 515 l 153 0 q 118 0 46 -6 l 46 3 q 84 13 99 45 q 113 78 113 162 l 113 380 q 113 444 98 474 q 83 503 46 512 l 46 521 q 106 516 153 515 z"},"H":{"x_min":0,"x_max":677,"ha":677,"o":"m 138 515 l 138 0 l 34 -6 l 34 3 q 57 9 74 28 q 89 47 94 72 q 99 96 99 157 l 99 382 q 99 454 81 479 q 62 505 34 512 l 34 521 q 64 517 138 515 z m 538 0 l 538 515 q 591 515 644 521 l 644 512 q 582 494 580 394 l 578 347 l 578 126 q 578 17 644 3 l 644 -6 q 551 0 538 0 z m 502 515 l 502 0 q 480 0 395 -6 l 395 3 q 424 9 443 37 q 462 64 462 142 l 462 245 l 214 245 l 214 126 q 214 58 234 34 q 254 10 282 3 l 282 -6 q 222 -1 174 0 l 174 515 q 217 515 282 521 l 282 512 q 244 501 229 471 q 214 441 214 368 l 214 287 l 462 287 l 462 380 q 462 441 446 472 q 429 503 395 512 l 395 521 q 447 515 502 515 z"},"4":{"x_min":0,"x_max":500,"ha":500,"o":"m 86 40 l 284 40 l 284 239 z m 284 -83 l 284 0 l 5 0 l 5 6 l 320 322 l 320 -78 q 320 -136 314 -160 q 309 -183 289 -203 q 269 -222 217 -245 l 211 -232 q 284 -206 284 -83 z m 353 -59 l 353 355 l 389 391 l 389 40 l 409 40 q 436 40 447 45 q 459 50 482 73 l 491 64 q 469 30 434 0 l 389 0 l 389 -63 q 389 -100 379 -118 q 370 -138 343 -163 q 353 -132 353 -59 z"},"~":{"x_min":0,"x_max":656,"ha":656,"o":"m 589 229 l 589 178 q 517 119 451 119 q 425 119 396 128 q 366 139 296 171 q 237 198 208 198 q 149 198 67 133 l 67 183 q 144 241 208 241 q 250 241 348 195 q 417 162 450 162 q 509 162 589 229 z"},"D":{"x_min":0,"x_max":667,"ha":667,"o":"m 506 38 q 587 100 587 253 q 587 402 521 464 q 576 427 604 375 q 633 322 633 254 q 633 114 506 38 z m 139 515 l 139 0 q 104 0 30 -6 l 30 3 q 67 13 83 47 q 98 79 98 181 l 98 382 q 98 444 83 473 q 68 500 30 512 l 30 521 q 93 516 139 515 z m 222 469 q 214 447 214 315 l 214 196 q 214 89 228 40 q 266 28 314 28 q 404 28 456 85 q 508 143 508 255 q 508 364 457 425 q 405 485 304 485 q 252 485 222 469 z m 203 0 l 173 0 l 173 515 q 241 516 268 518 q 308 521 323 521 q 396 521 448 487 q 500 453 525 397 q 551 343 551 260 q 551 133 490 63 q 428 -6 323 -6 q 274 -6 213 0 q 210 0 203 0 z"},"^":{"x_min":0,"x_max":469,"ha":469,"o":"m 16 271 l 234 533 l 453 271 l 421 245 l 234 470 l 47 245 z"},"0":{"x_min":0,"x_max":490,"ha":490,"o":"m 96 316 q 63 267 63 172 q 63 82 98 41 q 22 87 22 176 q 22 272 96 316 z m 392 42 q 426 90 426 181 q 426 264 392 318 q 467 267 467 181 q 467 91 392 42 z m 136 167 q 136 89 167 55 q 199 20 244 20 q 290 20 321 56 q 352 90 352 178 q 352 337 244 337 q 136 337 136 167 z m 95 180 q 95 264 136 317 q 176 370 246 370 q 306 370 349 325 q 392 280 392 178 q 392 83 351 37 q 310 -10 245 -10 q 193 -10 159 16 q 124 42 110 82 q 95 121 95 180 z"},"F":{"x_min":0,"x_max":458,"ha":458,"o":"m 194 0 l 175 0 l 175 515 l 296 515 q 349 515 435 521 q 435 508 435 487 q 435 476 436 443 q 438 408 438 406 l 438 394 l 427 394 q 414 481 344 481 l 250 481 q 233 481 221 477 q 214 438 214 374 l 214 273 l 300 273 q 355 273 380 287 q 405 300 413 334 l 423 334 q 420 281 420 261 q 420 249 421 220 q 423 192 423 180 l 423 164 l 413 164 q 410 241 330 241 l 214 241 l 214 127 q 214 17 282 3 l 282 -6 q 212 0 194 0 z m 137 515 l 137 0 q 94 0 35 -6 l 35 3 q 68 13 83 44 q 98 75 98 145 l 98 386 q 98 453 80 479 q 62 505 35 511 l 35 521 q 87 516 137 515 z"},"`":{"x_min":0,"x_max":333,"ha":333,"o":"m 270 415 l 235 415 l 116 561 l 194 561 z"},"k":{"x_min":0,"x_max":521,"ha":521,"o":"m 515 3 l 515 -6 q 452 -1 430 0 l 219 223 l 275 264 q 308 289 308 312 q 308 338 279 345 l 279 354 q 302 352 317 350 l 375 348 q 393 348 430 351 q 468 354 474 354 l 474 345 q 425 340 333 270 l 268 221 l 401 80 q 466 10 515 3 z m 148 0 l 148 590 q 165 590 190 593 q 184 513 184 467 l 184 212 l 384 0 l 367 0 q 351 0 335 -3 q 319 20 294 46 l 184 164 l 184 94 q 184 55 197 32 q 210 10 244 3 l 244 -6 q 186 -1 148 0 z m 22 596 l 115 590 l 115 0 q 76 0 22 -6 l 22 3 q 56 12 68 36 q 80 61 80 118 l 80 482 q 80 522 77 538 q 73 554 59 568 q 44 583 22 587 z"},"u":{"x_min":0,"x_max":531,"ha":531,"o":"m 417 0 l 417 348 q 476 349 514 354 l 514 345 q 479 337 466 314 q 453 292 453 243 l 453 108 q 453 56 466 33 q 479 10 514 3 l 514 -6 q 498 -4 465 -2 q 432 0 417 0 z m 384 348 l 384 0 q 365 0 347 -3 q 347 2 347 11 q 348 20 348 27 q 285 -6 233 -6 q 198 -6 176 10 q 154 26 148 50 q 141 75 141 117 l 141 348 q 156 348 181 351 q 179 341 179 321 q 178 308 177 296 l 177 106 q 177 62 191 44 q 205 25 247 25 q 288 25 348 58 l 348 249 q 348 294 335 316 q 323 337 290 345 l 290 354 q 315 351 335 350 q 355 349 384 348 z m 11 345 l 11 354 q 55 349 109 348 l 109 114 q 109 59 117 40 q 125 20 141 5 q 115 7 93 26 q 72 44 72 105 l 72 240 q 72 291 60 313 q 47 335 11 345 z"},"]":{"x_min":0,"x_max":281,"ha":281,"o":"m 200 593 l 200 -332 q 181 -330 164 -329 l 164 590 q 187 591 200 593 z m 131 590 l 131 -329 q 89 -330 71 -332 q 29 -335 11 -335 l 11 -326 q 58 -323 77 -300 q 95 -276 95 -227 l 95 483 q 95 544 73 563 q 52 583 11 586 l 11 596 q 27 596 50 594 q 91 590 131 590 z"},"U":{"x_min":0,"x_max":708,"ha":708,"o":"m 535 515 l 535 0 l 489 0 q 494 16 495 47 q 414 -6 325 -6 q 272 -6 233 17 q 194 40 181 76 q 167 113 167 179 l 167 515 q 218 515 280 521 l 280 512 q 253 507 236 491 q 219 473 214 452 q 208 429 208 382 l 208 372 l 208 185 q 208 123 217 95 q 226 66 257 47 q 289 28 335 28 q 411 28 495 83 l 495 369 q 495 424 489 449 q 484 473 468 490 q 453 505 427 512 l 427 521 q 430 521 440 520 q 451 520 463 518 q 503 516 535 515 z m 23 521 l 132 515 l 132 176 q 132 100 143 70 q 153 39 187 10 q 156 15 132 33 q 107 50 99 75 q 91 99 91 155 l 91 388 q 91 448 75 476 q 59 504 23 512 z m 598 0 l 570 0 l 570 515 q 607 516 626 517 l 681 521 l 681 512 q 656 507 638 489 q 621 471 616 444 q 611 419 611 349 l 611 134 q 611 13 681 3 l 681 -6 q 617 0 598 0 z"},"o":{"x_min":0,"x_max":500,"ha":500,"o":"m 115 324 q 70 273 70 175 q 70 77 115 25 q 31 73 31 177 q 31 280 115 324 z m 384 30 q 429 81 429 170 q 429 218 418 261 q 407 304 384 324 q 469 277 469 179 q 469 84 384 30 z m 144 178 q 144 89 171 57 q 199 25 249 25 q 296 25 326 59 q 354 92 354 180 q 354 328 249 328 q 144 328 144 178 z m 103 170 q 103 265 142 312 q 181 358 249 358 q 312 358 354 317 q 396 275 396 180 q 396 75 351 33 q 306 -9 248 -9 q 188 -9 146 35 q 103 79 103 170 z"},"N":{"x_min":0,"x_max":771,"ha":771,"o":"m 671 82 l 164 515 l 222 515 l 632 165 l 632 368 q 632 418 625 446 q 619 472 598 489 q 577 506 544 512 l 544 521 q 544 521 561 519 q 625 515 648 515 q 669 515 748 521 l 748 512 q 723 508 704 491 q 685 474 678 450 q 671 425 671 380 z m 109 515 l 671 34 l 671 -6 l 662 -6 l 219 371 l 219 144 q 219 69 238 41 q 257 12 298 3 l 298 -6 q 225 0 198 0 q 168 0 108 -6 l 108 3 q 150 13 166 42 q 181 72 181 148 l 180 403 l 145 433 q 72 495 21 512 l 21 521 z"},"+":{"x_min":0,"x_max":667,"ha":667,"o":"m 71 157 l 71 200 l 311 200 l 311 441 l 354 441 l 354 200 l 596 200 l 596 157 l 354 157 l 354 -82 l 311 -82 l 311 157 z"},"G":{"x_min":0,"x_max":594,"ha":594,"o":"m 491 34 l 491 269 q 514 270 534 272 q 565 275 575 275 l 575 266 q 531 248 531 170 l 531 46 q 527 46 512 41 q 504 39 499 37 q 494 35 491 34 z m 135 470 q 75 386 75 256 q 75 226 82 170 q 89 115 124 55 q 29 129 29 257 q 29 336 61 390 q 92 442 135 470 z m 455 269 l 455 22 q 377 -10 321 -10 q 226 -10 168 53 q 139 84 125 133 q 110 181 110 245 q 110 524 344 524 q 430 524 511 496 q 511 450 512 426 q 514 405 514 375 l 504 375 q 492 427 449 458 q 404 488 343 488 q 153 488 153 260 q 153 28 314 28 q 379 28 406 59 q 415 75 415 119 l 415 185 q 415 255 363 266 l 363 275 q 381 274 413 272 q 438 270 455 269 z"},"q":{"x_min":0,"x_max":542,"ha":542,"o":"m 121 326 q 70 264 70 176 q 70 95 117 31 q 77 47 53 85 q 28 125 28 174 q 28 226 55 267 q 82 308 121 326 z m 424 -300 l 424 348 q 477 349 527 354 l 527 345 q 501 342 485 329 q 470 315 465 296 q 460 278 460 234 l 460 -172 q 460 -226 463 -243 q 467 -262 480 -275 q 495 -289 527 -298 l 527 -306 q 506 -306 476 -303 q 447 -300 424 -300 z m 356 45 l 356 278 q 309 327 259 327 q 216 327 181 289 q 146 251 146 173 q 146 99 180 62 q 213 24 272 24 q 310 24 356 45 z m 392 348 l 392 -300 l 350 -303 q 356 -278 356 -229 l 356 12 q 308 -8 263 -8 q 194 -8 148 41 q 103 90 103 179 q 103 260 148 310 q 193 359 254 359 q 303 359 356 319 l 353 351 q 355 351 367 350 q 378 349 392 348 z"},"d":{"x_min":0,"x_max":542,"ha":542,"o":"m 121 318 q 69 265 69 167 q 69 84 121 17 q 29 74 29 172 q 29 279 121 318 z m 443 0 l 426 0 l 426 590 q 441 590 467 593 q 461 504 461 416 l 461 113 q 461 72 466 54 q 472 34 488 21 q 505 6 529 3 l 529 -6 q 476 0 443 0 z m 357 167 l 357 299 q 314 324 271 324 q 209 324 176 282 q 142 241 142 170 q 142 106 173 64 q 204 22 255 22 q 307 22 354 64 q 357 110 357 167 z m 393 590 l 393 0 q 365 -1 353 -3 q 354 13 354 27 q 307 -9 253 -9 q 181 -9 142 42 q 103 95 103 166 q 103 241 143 297 q 183 354 271 354 q 318 354 357 332 l 357 490 q 357 535 344 557 q 330 580 295 587 l 295 596 q 343 592 393 590 z"},"1":{"x_min":0,"x_max":271,"ha":271,"o":"m 123 365 l 123 0 q 88 -1 58 -4 q 51 -4 44 -5 q 38 -5 32 -6 q 26 -6 22 -6 l 22 3 q 46 7 62 23 q 76 38 82 55 q 86 69 86 116 l 86 252 q 86 297 83 309 q 80 321 65 329 q 51 337 22 338 l 22 346 q 84 353 123 365 z m 156 0 l 156 375 q 184 386 192 391 l 192 95 q 192 14 254 3 l 254 -6 q 209 -2 182 -1 q 156 0 156 0 z"},"5":{"x_min":0,"x_max":417,"ha":417,"o":"m 299 -169 q 345 -125 345 -34 q 345 55 297 113 q 387 66 387 -29 q 387 -124 299 -169 z m 72 279 l 337 279 l 306 247 l 106 247 l 101 129 q 129 142 164 142 q 224 142 268 95 q 312 48 312 -28 q 312 -109 271 -159 q 229 -210 158 -210 q 102 -210 64 -178 q 27 -147 16 -96 l 28 -92 q 72 -177 152 -177 q 208 -177 240 -137 q 271 -97 271 -31 q 271 36 239 74 q 206 111 158 111 q 109 111 68 69 l 62 69 z m 368 312 l 74 312 l 75 344 l 320 344 q 353 344 368 348 q 380 351 393 366 l 407 366 q 393 342 379 325 z"}}}
